<svg width="30" height="30" viewBox="0 0 30 30" fill="none" xmlns="http://www.w3.org/2000/svg">
<path d="M27.6562 6.79688V8.61562H2.34375V6.79688C2.34368 6.55063 2.39213 6.30678 2.48633 6.07926C2.58054 5.85174 2.71865 5.64502 2.89277 5.47089C3.06689 5.29677 3.27362 5.15866 3.50114 5.06446C3.72865 4.97026 3.9725 4.92181 4.21875 4.92188V6.32813C4.21875 6.70109 4.36691 7.05877 4.63063 7.32249C4.89435 7.58622 5.25204 7.73438 5.625 7.73438C5.99796 7.73438 6.35565 7.58622 6.61937 7.32249C6.88309 7.05877 7.03125 6.70109 7.03125 6.32813V4.92188H13.5938V6.32813C13.5938 6.70109 13.7419 7.05877 14.0056 7.32249C14.2694 7.58622 14.627 7.73438 15 7.73438C15.373 7.73438 15.7306 7.58622 15.9944 7.32249C16.2581 7.05877 16.4062 6.70109 16.4062 6.32813V4.92188H22.9688V6.32813C22.9688 6.70109 23.1169 7.05877 23.3806 7.32249C23.6444 7.58622 24.002 7.73438 24.375 7.73438C24.748 7.73438 25.1056 7.58622 25.3694 7.32249C25.6331 7.05877 25.7812 6.70109 25.7812 6.32813V4.92188C26.0275 4.92181 26.2713 4.97026 26.4989 5.06446C26.7264 5.15866 26.9331 5.29677 27.1072 5.47089C27.2814 5.64502 27.4195 5.85174 27.5137 6.07926C27.6079 6.30678 27.6563 6.55063 27.6562 6.79688Z" fill="white"/>
<path d="M2.34375 9.55078V25.0781C2.34375 25.5754 2.54129 26.0523 2.89292 26.4039C3.24456 26.7556 3.72147 26.9531 4.21875 26.9531H25.7812C26.2785 26.9531 26.7554 26.7556 27.1071 26.4039C27.4587 26.0523 27.6562 25.5754 27.6562 25.0781V9.55078H2.34375ZM18.6948 17.4687C18.556 17.6893 18.4789 17.943 18.4715 18.2035C18.4472 19.1011 18.4056 20.0429 18.3467 21.0289C18.3127 21.8788 18.1109 22.7136 17.7529 23.4852C17.6577 23.6753 17.1167 24.4742 16.6192 24.3759C16.2672 24.3064 16.0084 23.5728 16.0018 22.9622C15.9808 21.8928 15.6785 20.8479 15.1253 19.9325C15.1107 19.913 15.0917 19.8971 15.0699 19.8862C15.0481 19.8753 15.024 19.8696 14.9996 19.8696C14.9753 19.8696 14.9512 19.8753 14.9294 19.8862C14.9076 19.8971 14.8886 19.913 14.874 19.9325C14.3211 20.848 14.019 21.8928 13.9982 22.9621C13.9916 23.5727 13.7329 24.3062 13.3808 24.3758C12.8833 24.4741 12.3423 23.6752 12.2471 23.4851C11.8891 22.7135 11.6873 21.8787 11.6533 21.0287C11.5929 20.0437 11.5513 19.1019 11.5285 18.2033C11.5211 17.9429 11.444 17.6892 11.3052 17.4686C10.5085 16.198 10.1941 14.8252 10.5736 13.7678C10.7879 13.1704 11.491 12.2488 12.3821 12.1483C12.9213 12.0562 13.4756 12.1642 13.9409 12.4519C14.2662 12.6329 14.6286 12.7367 15.0003 12.7556C15.3718 12.7368 15.7341 12.6329 16.0591 12.452C16.5244 12.1643 17.0787 12.0563 17.6179 12.1484C18.509 12.2489 19.2121 13.1705 19.4264 13.7679C19.8059 14.8254 19.4915 16.1981 18.6948 17.4687Z" fill="white"/>
<path d="M6.09375 3.51562V6.32812C6.09375 6.45245 6.04436 6.57167 5.95646 6.65958C5.86855 6.74749 5.74932 6.79688 5.625 6.79688C5.50068 6.79688 5.38145 6.74749 5.29354 6.65958C5.20564 6.57167 5.15625 6.45245 5.15625 6.32812V3.51562C5.15625 3.3913 5.20564 3.27208 5.29354 3.18417C5.38145 3.09626 5.50068 3.04687 5.625 3.04688C5.74932 3.04687 5.86855 3.09626 5.95646 3.18417C6.04436 3.27208 6.09375 3.3913 6.09375 3.51562Z" fill="white"/>
<path d="M15.4688 3.51562V6.32812C15.4688 6.45245 15.4194 6.57167 15.3315 6.65958C15.2435 6.74749 15.1243 6.79688 15 6.79688C14.8757 6.79688 14.7565 6.74749 14.6685 6.65958C14.5806 6.57167 14.5312 6.45245 14.5312 6.32812V3.51562C14.5312 3.3913 14.5806 3.27208 14.6685 3.18417C14.7565 3.09626 14.8757 3.04687 15 3.04688C15.1243 3.04687 15.2435 3.09626 15.3315 3.18417C15.4194 3.27208 15.4688 3.3913 15.4688 3.51562Z" fill="white"/>
<path d="M24.8438 3.51562V6.32812C24.8438 6.45245 24.7944 6.57167 24.7065 6.65958C24.6185 6.74749 24.4993 6.79688 24.375 6.79688C24.2507 6.79688 24.1315 6.74749 24.0435 6.65958C23.9556 6.57167 23.9062 6.45245 23.9062 6.32812V3.51562C23.9062 3.3913 23.9556 3.27208 24.0435 3.18417C24.1315 3.09626 24.2507 3.04687 24.375 3.04688C24.4993 3.04687 24.6185 3.09626 24.7065 3.18417C24.7944 3.27208 24.8438 3.3913 24.8438 3.51562Z" fill="white"/>
</svg>
