<svg width="26" height="26" viewBox="0 0 26 26" fill="none" xmlns="http://www.w3.org/2000/svg">
<path d="M9.64876 11.6979C8.06543 11.6979 6.78418 10.4167 6.78418 8.83333C6.78418 7.25 8.06543 5.96875 9.64876 5.96875C11.2321 5.96875 12.5133 7.25 12.5133 8.83333C12.5133 10.4167 11.2321 11.6979 9.64876 11.6979ZM9.64876 7.53125C8.93001 7.53125 8.34668 8.11458 8.34668 8.83333C8.34668 9.55208 8.93001 10.1354 9.64876 10.1354C10.3675 10.1354 10.9508 9.55208 10.9508 8.83333C10.9508 8.11458 10.3675 7.53125 9.64876 7.53125Z" fill="black"/>
<path d="M15.8991 24.1976H9.64909C3.99284 24.1976 1.57617 21.7809 1.57617 16.1247V9.87467C1.57617 4.21842 3.99284 1.80176 9.64909 1.80176H13.8158C14.2428 1.80176 14.597 2.15592 14.597 2.58301C14.597 3.01009 14.2428 3.36426 13.8158 3.36426H9.64909C4.84701 3.36426 3.13867 5.07259 3.13867 9.87467V16.1247C3.13867 20.9268 4.84701 22.6351 9.64909 22.6351H15.8991C20.7012 22.6351 22.4095 20.9268 22.4095 16.1247V10.9163C22.4095 10.4893 22.7637 10.1351 23.1908 10.1351C23.6178 10.1351 23.972 10.4893 23.972 10.9163V16.1247C23.972 21.7809 21.5553 24.1976 15.8991 24.1976Z" fill="black"/>
<path d="M19.0244 9.61426C18.9202 9.61426 18.8265 9.59342 18.7223 9.55176C18.4307 9.43717 18.2432 9.14551 18.2432 8.83301V2.58301C18.2432 2.15592 18.5973 1.80176 19.0244 1.80176C19.4515 1.80176 19.8057 2.15592 19.8057 2.58301V6.94759L20.5557 6.19759C20.8577 5.89551 21.3577 5.89551 21.6598 6.19759C21.9619 6.49967 21.9619 6.99967 21.6598 7.30176L19.5765 9.38509C19.4307 9.53092 19.2327 9.61426 19.0244 9.61426Z" fill="black"/>
<path d="M19.0241 9.61393C18.8262 9.61393 18.6283 9.54102 18.472 9.38477L16.3887 7.30143C16.0866 6.99935 16.0866 6.49935 16.3887 6.19727C16.6908 5.89518 17.1908 5.89518 17.4928 6.19727L19.5762 8.2806C19.8783 8.58268 19.8783 9.08268 19.5762 9.38477C19.4199 9.54102 19.222 9.61393 19.0241 9.61393Z" fill="black"/>
<path d="M3.05539 21.0205C2.80539 21.0205 2.55539 20.8955 2.40955 20.6768C2.16997 20.3226 2.26372 19.833 2.6283 19.5934L7.76372 16.1455C8.88872 15.3851 10.4408 15.4788 11.4617 16.3434L11.8054 16.6455C12.3263 17.0934 13.2117 17.0934 13.7221 16.6455L18.0554 12.9268C19.1596 11.9788 20.8992 11.9788 22.0138 12.9268L23.7117 14.3851C24.0346 14.6663 24.0763 15.1559 23.795 15.4893C23.5138 15.8122 23.0242 15.8538 22.6908 15.5726L20.9929 14.1143C20.4721 13.6663 19.5867 13.6663 19.0658 14.1143L14.7325 17.833C13.6283 18.7809 11.8888 18.7809 10.7742 17.833L10.4304 17.5309C9.95122 17.1247 9.15955 17.083 8.6283 17.4476L3.49289 20.8955C3.35747 20.9788 3.20122 21.0205 3.05539 21.0205Z" fill="black"/>
</svg>
