<svg width="60" height="60" viewBox="0 0 60 60" fill="none" xmlns="http://www.w3.org/2000/svg">
<g clip-path="url(#clip0_1562_3468)">
<path d="M56.9999 34.0001H38.9999C38.2042 34.0001 37.4412 34.3162 36.8786 34.8788C36.316 35.4414 35.9999 36.2045 35.9999 37.0001V42.0001H26.6429C26.9862 41.3002 27.0827 40.5048 26.9169 39.7431L24.9169 30.7431C24.7733 30.0818 24.4397 29.4768 23.957 29.0025C23.4743 28.5282 22.8636 28.2051 22.1999 28.0731L17.8889 27.1291L18.5249 24.3731C19.2763 24.7836 20.1187 24.9991 20.9749 25.0001C21.2201 25.0012 21.4651 24.9845 21.7079 24.9501L27.4079 24.1311C27.7997 24.0774 28.1769 23.9466 28.5178 23.7463C28.8587 23.5459 29.1565 23.28 29.394 22.9638C29.6315 22.6476 29.804 22.2875 29.9015 21.9043C29.9989 21.5211 30.0195 21.1223 29.9619 20.7311C29.8445 19.9464 29.4229 19.2395 28.7883 18.7632C28.1537 18.2869 27.3572 18.0796 26.5709 18.1861L21.5619 18.9031L20.4559 16.0001C20.5484 15.5729 20.5967 15.1372 20.5999 14.7001C20.6127 14.0327 20.4797 13.3706 20.2103 12.7599C19.9409 12.1492 19.5414 11.6046 19.0399 11.1641C20.14 10.5164 21.0049 9.53464 21.5088 8.3616C22.0126 7.18857 22.1292 5.8854 21.8415 4.64158C21.5538 3.39775 20.8768 2.27811 19.9091 1.44545C18.9413 0.612794 17.7332 0.110524 16.4604 0.011671C15.1875 -0.0871824 13.9164 0.222535 12.8317 0.895791C11.7469 1.56905 10.9053 2.57074 10.429 3.75523C9.95269 4.93973 9.86664 6.24526 10.1833 7.48202C10.5 8.71878 11.2029 9.82229 12.1899 10.6321C11.8835 10.7446 11.5831 10.8727 11.2899 11.0161L5.25989 14.0271C4.45649 14.4298 3.74938 15.0011 3.18679 15.7019C2.6242 16.4027 2.21937 17.2166 1.99989 18.0881L0.0858935 25.7511C0.0289196 25.9933 6.23658e-05 26.2413 -0.000106497 26.4901C-0.00229709 27.1765 0.226667 27.8437 0.649893 28.3841C1.07312 28.9245 1.66596 29.3067 2.33289 29.4691C3.1149 29.6626 3.94154 29.5433 4.63688 29.1365C5.33222 28.7297 5.84135 28.0676 6.05589 27.2911L8.19189 19.3851L9.43689 18.9161L7.68589 26.8771C7.45018 27.9247 7.56035 29.0204 7.99989 30.0001V39.3401L2.69989 46.4001C2.42131 46.7673 2.21889 47.1864 2.10452 47.6329C1.99015 48.0794 1.96614 48.5442 2.03389 49.0001C2.09226 49.3733 2.21045 49.7346 2.38389 50.0701C1.71091 50.2113 1.10685 50.5794 0.672858 51.1128C0.238867 51.6462 0.00128657 52.3125 -0.000106497 53.0001V57.0001C-0.000106497 57.7958 0.315964 58.5588 0.878573 59.1214C1.44118 59.684 2.20424 60.0001 2.99989 60.0001H56.9999C57.7956 60.0001 58.5586 59.684 59.1212 59.1214C59.6838 58.5588 59.9999 57.7958 59.9999 57.0001V37.0001C59.9999 36.2045 59.6838 35.4414 59.1212 34.8788C58.5586 34.3162 57.7956 34.0001 56.9999 34.0001ZM14.9999 40.5001V33.6701L18.5719 34.4701L20.0839 41.2601C20.1505 41.5404 20.2513 41.8114 20.3839 42.0671C19.7108 42.2093 19.1069 42.578 18.673 43.1119C18.2391 43.6457 18.0015 44.3122 17.9999 45.0001V50.0001H8.74989L14.2999 42.6001C14.7518 41.993 14.9972 41.257 14.9999 40.5001ZM26.8539 20.1711C27.1173 20.1359 27.384 20.2057 27.5964 20.3655C27.8088 20.5253 27.9497 20.7622 27.9889 21.0251C28.0079 21.155 28.0008 21.2874 27.9682 21.4145C27.9355 21.5417 27.8778 21.661 27.7985 21.7657C27.7192 21.8703 27.6198 21.9581 27.5062 22.0239C27.3927 22.0897 27.2671 22.1323 27.1369 22.1491L21.4199 22.9721C20.9926 23.0367 20.5564 23.0084 20.141 22.8892C19.7256 22.7699 19.3409 22.5625 19.0129 22.2811L19.6549 19.5011L19.9859 20.3671C20.0669 20.579 20.2175 20.7571 20.413 20.8721C20.6085 20.9872 20.8373 21.0323 21.0619 21.0001L26.8539 20.1711ZM11.9999 6.0001C11.9999 5.20897 12.2345 4.43561 12.674 3.77782C13.1135 3.12002 13.7383 2.60733 14.4692 2.30458C15.2001 2.00183 16.0043 1.92262 16.7803 2.07696C17.5562 2.2313 18.2689 2.61226 18.8283 3.17167C19.3877 3.73108 19.7687 4.44381 19.923 5.21974C20.0774 5.99566 19.9982 6.79993 19.6954 7.53083C19.3927 8.26174 18.88 8.88645 18.2222 9.32598C17.5644 9.7655 16.791 10.0001 15.9999 10.0001C14.939 10.0001 13.9216 9.57867 13.1715 8.82853C12.4213 8.07838 11.9999 7.06096 11.9999 6.0001ZM7.00789 17.6941C6.85953 17.75 6.72657 17.8403 6.61998 17.9577C6.5134 18.075 6.43625 18.2161 6.39489 18.3691L4.12589 26.7691C4.05716 27.0216 3.89925 27.2406 3.68141 27.3856C3.46357 27.5306 3.20056 27.5918 2.94109 27.5577C2.68163 27.5237 2.4433 27.3967 2.27025 27.2004C2.0972 27.0041 2.00115 26.7518 1.99989 26.4901C1.99975 26.4003 2.00981 26.3107 2.02989 26.2231L3.93889 18.5721C4.08897 17.9803 4.36464 17.4276 4.74717 16.9518C5.1297 16.4759 5.61015 16.0879 6.15589 15.8141L12.1879 12.8051C13.3716 12.2232 14.682 11.9464 15.9999 12.0001C16.3502 11.999 16.697 12.0688 17.0195 12.2054C17.3421 12.342 17.6336 12.5425 17.8766 12.7948C18.1195 13.0471 18.3089 13.346 18.4332 13.6734C18.5575 14.0009 18.6142 14.3501 18.5999 14.7001C18.5992 15.0288 18.5606 15.3563 18.4849 15.6761L15.7159 27.6651C15.6864 27.7939 15.6827 27.9273 15.7051 28.0575C15.7275 28.1877 15.7754 28.3122 15.8462 28.4238C15.9169 28.5354 16.0091 28.6318 16.1174 28.7076C16.2256 28.7833 16.3478 28.8369 16.4769 28.8651L21.7999 30.0311C22.0851 30.0871 22.3475 30.2255 22.5548 30.4292C22.7621 30.6329 22.905 30.8929 22.9659 31.1771L24.9659 40.1771C25.0156 40.372 25.0256 40.5748 24.9953 40.7736C24.965 40.9724 24.8951 41.1631 24.7896 41.3343C24.6842 41.5055 24.5454 41.6538 24.3815 41.7703C24.2176 41.8868 24.0319 41.9691 23.8356 42.0125C23.6392 42.0558 23.4361 42.0592 23.2384 42.0225C23.0407 41.9857 22.8524 41.9096 22.6847 41.7987C22.517 41.6877 22.3733 41.5442 22.2622 41.3766C22.1511 41.209 22.0748 41.0208 22.0379 40.8231L20.3889 33.4131C20.3476 33.2275 20.2543 33.0576 20.1199 32.9231C19.9854 32.7887 19.8155 32.6954 19.6299 32.6541L11.8889 30.9271C11.1128 30.7439 10.4407 30.2612 10.0192 29.5843C9.59771 28.9075 9.46099 28.0914 9.63889 27.3141L11.6719 18.0741L14.0719 17.1661C14.32 17.0723 14.5207 16.8839 14.6299 16.6421C14.739 16.4004 14.7476 16.1252 14.6539 15.8771C14.5601 15.629 14.3717 15.4283 14.1299 15.3191C13.8882 15.21 13.613 15.2013 13.3649 15.2951L10.4549 16.3951L7.00789 17.6941ZM4.29989 47.6001L9.79989 40.2701C9.92972 40.097 9.99989 39.8865 9.99989 39.6701V32.2701C10.4453 32.5484 10.932 32.7543 11.4419 32.8801L12.9999 33.2241V40.5001C12.9988 40.8245 12.8936 41.1399 12.6999 41.4001L6.69989 49.4001C6.52066 49.636 6.27557 49.8136 5.99554 49.9104C5.71551 50.0072 5.41308 50.0189 5.12641 49.944C4.83974 49.8691 4.58167 49.711 4.38474 49.4897C4.18782 49.2683 4.06086 48.9935 4.01989 48.7001C3.99138 48.5073 4.00145 48.3108 4.04952 48.122C4.09759 47.9332 4.18269 47.7558 4.29989 47.6001ZM57.9999 57.0001C57.9999 57.2653 57.8945 57.5197 57.707 57.7072C57.5195 57.8947 57.2651 58.0001 56.9999 58.0001H2.99989C2.73468 58.0001 2.48032 57.8947 2.29279 57.7072C2.10525 57.5197 1.99989 57.2653 1.99989 57.0001V53.0001C1.99989 52.7349 2.10525 52.4805 2.29279 52.293C2.48032 52.1055 2.73468 52.0001 2.99989 52.0001H17.9999C18.5303 52.0001 19.039 51.7894 19.4141 51.4143C19.7892 51.0392 19.9999 50.5305 19.9999 50.0001V45.0001C19.9999 44.7349 20.1053 44.4805 20.2928 44.293C20.4803 44.1055 20.7347 44.0001 20.9999 44.0001H35.9999C36.5303 44.0001 37.039 43.7894 37.4141 43.4143C37.7892 43.0392 37.9999 42.5305 37.9999 42.0001V37.0001C37.9999 36.7349 38.1053 36.4805 38.2928 36.293C38.4803 36.1055 38.7347 36.0001 38.9999 36.0001H56.9999C57.2651 36.0001 57.5195 36.1055 57.707 36.293C57.8945 36.4805 57.9999 36.7349 57.9999 37.0001V57.0001Z" fill="#0D2548"/>
</g>
<defs>
<clipPath id="clip0_1562_3468">
<rect width="60" height="60" fill="white"/>
</clipPath>
</defs>
</svg>
