<svg width="60" height="60" viewBox="0 0 60 60" fill="none" xmlns="http://www.w3.org/2000/svg">
<g clip-path="url(#clip0_1077_1555)">
<path d="M48.4753 39.6498C48.299 39.4766 48.0614 39.3801 47.8143 39.3812C47.5671 39.3824 47.3304 39.481 47.1557 39.6558C46.9809 39.8305 46.8822 40.0672 46.8811 40.3144C46.88 40.5615 46.9765 40.7991 47.1497 40.9754L49.0247 42.8504C49.1117 42.9375 49.215 43.0066 49.3288 43.0537C49.4425 43.1008 49.5644 43.1251 49.6875 43.1251C49.8106 43.1251 49.9325 43.1008 50.0463 43.0537C50.16 43.0066 50.2633 42.9375 50.3504 42.8504L54.1004 39.1004C54.2743 38.9243 54.3715 38.6864 54.3707 38.4388C54.37 38.1912 54.2713 37.954 54.0962 37.7789C53.9211 37.6039 53.6839 37.5052 53.4363 37.5044C53.1887 37.5036 52.9509 37.6008 52.7747 37.7748L49.6875 40.8619L48.4753 39.6498Z" fill="#0D2548"/>
<path d="M59.0625 32.8125C56.135 32.6361 53.3716 31.4009 51.2878 29.3372C51.2008 29.2501 51.0975 29.181 50.9837 29.1339C50.87 29.0868 50.7481 29.0625 50.625 29.0625C50.5019 29.0625 50.38 29.0868 50.2662 29.1339C50.1525 29.181 50.0492 29.2501 49.9621 29.3372C47.8726 31.3925 45.1125 32.6262 42.1875 32.8125C41.9389 32.8125 41.7004 32.9113 41.5246 33.0871C41.3488 33.2629 41.25 33.5013 41.25 33.75V39.8556C41.2474 42.6429 42.1232 45.36 43.7529 47.6212C45.3826 49.8823 47.6834 51.5724 50.3284 52.4514C50.5208 52.5161 50.7292 52.5161 50.9216 52.4514C53.5665 51.5725 55.8672 49.8826 57.4969 47.6216C59.1266 45.3606 60.0024 42.6436 60 39.8565V33.75C60 33.5013 59.9012 33.2629 59.7254 33.0871C59.5496 32.9113 59.3111 32.8125 59.0625 32.8125ZM58.125 39.8565C58.1269 42.1965 57.4081 44.4802 56.0661 46.3972C54.7242 48.3141 52.8243 49.7711 50.625 50.57C48.4256 49.7709 46.5258 48.3137 45.1838 46.3966C43.8419 44.4796 43.123 42.1957 43.125 39.8556V34.6197C45.9006 34.2764 48.5114 33.1151 50.625 31.2835C52.7386 33.1151 55.3494 34.2764 58.125 34.6197V39.8565Z" fill="#0D2548"/>
<path d="M39.2588 45.1959C38.6891 45.4693 38.1011 45.7027 37.4991 45.8945C32.7798 44.388 27.6814 39.706 24.8116 34.6875H30.1728C30.394 35.313 30.8292 35.8402 31.4014 36.1758C31.9737 36.5115 32.6462 36.6341 33.3001 36.5218C33.9539 36.4096 34.5471 36.0699 34.9747 35.5626C35.4023 35.0554 35.6368 34.4133 35.6368 33.7498C35.6368 33.0864 35.4022 32.4443 34.9746 31.9371C34.547 31.4299 33.9538 31.0901 33.2999 30.978C32.646 30.8658 31.9735 30.9884 31.4013 31.3241C30.829 31.6598 30.3939 32.187 30.1728 32.8125H23.8657C23.3996 31.8044 23.0368 30.7516 22.7829 29.6704C22.2839 27.4292 22.2125 24.2944 24.7064 22.0853C26.7105 20.3101 28.7539 19.5135 30.802 19.7195C34.2984 20.0739 36.7254 23.2544 36.7483 23.2855C36.8356 23.4022 36.9489 23.497 37.0792 23.5623C37.2096 23.6276 37.3533 23.6617 37.4991 23.6618H37.5009C37.6465 23.6618 37.79 23.6278 37.9202 23.5627C38.0503 23.4975 38.1635 23.4029 38.2507 23.2864C38.2745 23.2544 40.7016 20.0739 44.198 19.7195C46.2415 19.5154 48.2886 20.3091 50.2936 22.0853C51.0438 22.7568 51.6315 23.5902 52.0121 24.5224C52.3928 25.4546 52.5565 26.4611 52.4908 27.4658C52.4852 27.7144 52.5784 27.9551 52.7501 28.135C52.9217 28.3149 53.1578 28.4193 53.4064 28.4253C53.6539 28.427 53.8923 28.3325 54.0714 28.1616C54.2504 27.9908 54.356 27.757 54.3658 27.5098C54.4353 26.2326 54.2172 24.9562 53.7275 23.7746C53.2379 22.593 52.4893 21.5364 51.5369 20.6827C49.119 18.5394 46.5756 17.5891 43.9929 17.8555C41.4966 18.221 39.203 19.4373 37.5 21.2988C35.797 19.4373 33.5034 18.221 31.0071 17.8555C28.4225 17.5891 25.881 18.5394 23.4631 20.6818C20.9482 22.9093 20.0793 26.1584 20.9528 30.0778C21.1656 31.0113 21.454 31.9259 21.8152 32.8125H19.6875C18.6932 32.8135 17.74 33.2089 17.0369 33.9119C16.3339 34.615 15.9385 35.5682 15.9375 36.5625V46.875C15.9375 47.8696 15.5424 48.8234 14.8392 49.5266C14.1359 50.2299 13.1821 50.625 12.1875 50.625C11.1929 50.625 10.2391 50.2299 9.53585 49.5266C8.83259 48.8234 8.4375 47.8696 8.4375 46.875V35.625H9.375C9.49813 35.6251 9.62007 35.6009 9.73385 35.5538C9.84762 35.5067 9.951 35.4376 10.0381 35.3506C10.1251 35.2635 10.1942 35.1601 10.2413 35.0463C10.2884 34.9326 10.3126 34.8106 10.3125 34.6875V29.0625C11.5553 29.061 12.7467 28.5667 13.6255 27.688C14.5042 26.8092 14.9985 25.6178 15 24.375V18.75C15.0001 18.6269 14.9759 18.5049 14.9288 18.3912C14.8817 18.2774 14.8126 18.174 14.7256 18.0869C14.6385 17.9999 14.5351 17.9308 14.4213 17.8837C14.3076 17.8366 14.1856 17.8124 14.0625 17.8125H13.125V11.25C13.124 10.2557 12.7286 9.30249 12.0256 8.59945C11.3225 7.8964 10.3693 7.50099 9.375 7.5C9.12636 7.5 8.8879 7.59877 8.71209 7.77459C8.53627 7.9504 8.4375 8.18886 8.4375 8.4375C8.4375 8.68614 8.53627 8.9246 8.71209 9.10041C8.8879 9.27623 9.12636 9.375 9.375 9.375C9.87208 9.37564 10.3486 9.5734 10.7001 9.92489C11.0516 10.2764 11.2494 10.7529 11.25 11.25V17.8125H10.3125C10.1894 17.8124 10.0674 17.8366 9.95365 17.8837C9.83988 17.9308 9.7365 17.9999 9.64943 18.0869C9.56236 18.174 9.49331 18.2774 9.44622 18.3912C9.39913 18.5049 9.37493 18.6269 9.375 18.75V23.4375H5.625V18.75C5.62507 18.6269 5.60087 18.5049 5.55378 18.3912C5.50669 18.2774 5.43764 18.174 5.35057 18.0869C5.2635 17.9999 5.16012 17.9308 5.04635 17.8837C4.93257 17.8366 4.81063 17.8124 4.6875 17.8125H3.75V11.25C3.75064 10.7529 3.9484 10.2764 4.29989 9.92489C4.65138 9.5734 5.12792 9.37564 5.625 9.375C5.87364 9.375 6.1121 9.27623 6.28791 9.10041C6.46373 8.9246 6.5625 8.68614 6.5625 8.4375C6.5625 8.18886 6.46373 7.9504 6.28791 7.77459C6.1121 7.59877 5.87364 7.5 5.625 7.5C4.63074 7.50099 3.67749 7.8964 2.97445 8.59945C2.2714 9.30249 1.87599 10.2557 1.875 11.25V17.8125H0.9375C0.814366 17.8124 0.692426 17.8366 0.578651 17.8837C0.464877 17.9308 0.3615 17.9999 0.274431 18.0869C0.187362 18.174 0.118309 18.2774 0.07122 18.3912C0.0241311 18.5049 -7.0094e-05 18.6269 1.52485e-07 18.75V24.375C0.00145906 25.6178 0.495788 26.8092 1.37455 27.688C2.25331 28.5667 3.44475 29.061 4.6875 29.0625V34.6875C4.68743 34.8106 4.71163 34.9326 4.75872 35.0463C4.80581 35.1601 4.87486 35.2635 4.96193 35.3506C5.049 35.4376 5.15238 35.5067 5.26615 35.5538C5.37993 35.6009 5.50187 35.6251 5.625 35.625H6.5625V46.875C6.5625 48.3668 7.15513 49.7976 8.21002 50.8525C9.26492 51.9074 10.6957 52.5 12.1875 52.5C13.6793 52.5 15.1101 51.9074 16.165 50.8525C17.2199 49.7976 17.8125 48.3668 17.8125 46.875V36.5625C17.8131 36.0654 18.0109 35.5889 18.3624 35.2374C18.7139 34.8859 19.1904 34.6881 19.6875 34.6875H22.6853C25.7204 40.5823 31.6527 46.1301 37.2354 47.7741C37.4096 47.8256 37.5951 47.8253 37.7692 47.7731C38.559 47.5389 39.3289 47.2422 40.0717 46.886C40.2945 46.7774 40.4652 46.585 40.5466 46.3509C40.6279 46.1167 40.6133 45.86 40.5058 45.6366C40.3984 45.4133 40.2069 45.2415 39.9732 45.159C39.7395 45.0764 39.4827 45.0897 39.2588 45.1959ZM32.8125 32.8125C32.9979 32.8125 33.1792 32.8675 33.3333 32.9705C33.4875 33.0735 33.6077 33.2199 33.6786 33.3912C33.7496 33.5625 33.7682 33.751 33.732 33.9329C33.6958 34.1148 33.6065 34.2818 33.4754 34.4129C33.3443 34.544 33.1773 34.6333 32.9954 34.6695C32.8135 34.7057 32.625 34.6871 32.4537 34.6161C32.2824 34.5452 32.136 34.425 32.033 34.2708C31.93 34.1167 31.875 33.9354 31.875 33.75C31.8752 33.5014 31.974 33.2631 32.1498 33.0873C32.3256 32.9115 32.5639 32.8127 32.8125 32.8125ZM5.625 27.1875H4.6875C3.94183 27.1867 3.22693 26.8901 2.69966 26.3628C2.17239 25.8356 1.87581 25.1207 1.875 24.375V19.6875H3.75V24.375C3.74993 24.4981 3.77413 24.6201 3.82122 24.7338C3.86831 24.8476 3.93736 24.951 4.02443 25.0381C4.1115 25.1251 4.21488 25.1942 4.32865 25.2413C4.44243 25.2884 4.56437 25.3126 4.6875 25.3125H10.3125C10.4356 25.3126 10.5576 25.2884 10.6713 25.2413C10.7851 25.1942 10.8885 25.1251 10.9756 25.0381C11.0626 24.951 11.1317 24.8476 11.1788 24.7338C11.2259 24.6201 11.2501 24.4981 11.25 24.375V19.6875H13.125V24.375C13.1242 25.1207 12.8276 25.8356 12.3003 26.3628C11.7731 26.8901 11.0582 27.1867 10.3125 27.1875H9.375C9.25187 27.1874 9.12993 27.2116 9.01615 27.2587C8.90238 27.3058 8.799 27.3749 8.71193 27.4619C8.62486 27.549 8.55581 27.6524 8.50872 27.7662C8.46163 27.8799 8.43743 28.0019 8.4375 28.125V33.75H6.5625V28.125C6.56257 28.0019 6.53837 27.8799 6.49128 27.7662C6.44419 27.6524 6.37514 27.549 6.28807 27.4619C6.201 27.3749 6.09762 27.3058 5.98385 27.2587C5.87007 27.2116 5.74813 27.1874 5.625 27.1875Z" fill="#0D2548"/>
</g>
<defs>
<clipPath id="clip0_1077_1555">
<rect width="60" height="60" fill="white"/>
</clipPath>
</defs>
</svg>
