<svg width="20" height="21" viewBox="0 0 20 21" fill="none" xmlns="http://www.w3.org/2000/svg">
<path d="M10 1.75C8.17664 1.75 6.42795 2.47433 5.13864 3.76364C3.84933 5.05295 3.125 6.80164 3.125 8.625C3.125 13.8625 9.375 18.9 9.6125 19.1125C9.72246 19.2007 9.85902 19.2492 10 19.25C10.1431 19.2506 10.2821 19.2021 10.3937 19.1125C10.6562 18.9 16.875 13.8625 16.875 8.625C16.875 6.80164 16.1507 5.05295 14.8614 3.76364C13.572 2.47433 11.8234 1.75 10 1.75ZM10 17.8062C8.66875 16.6313 4.375 12.5625 4.375 8.625C4.375 7.13316 4.96763 5.70242 6.02252 4.64752C7.07742 3.59263 8.50816 3 10 3C11.4918 3 12.9226 3.59263 13.9775 4.64752C15.0324 5.70242 15.625 7.13316 15.625 8.625C15.625 12.5625 11.3313 16.6313 10 17.8062Z" fill="#0D2548"/>
<path d="M10 6.125C9.50555 6.125 9.0222 6.27162 8.61108 6.54633C8.19995 6.82103 7.87952 7.21148 7.6903 7.66829C7.50108 8.12511 7.45157 8.62777 7.54804 9.11273C7.6445 9.59768 7.8826 10.0431 8.23223 10.3928C8.58187 10.7424 9.02732 10.9805 9.51228 11.077C9.99723 11.1734 10.4999 11.1239 10.9567 10.9347C11.4135 10.7455 11.804 10.425 12.0787 10.0139C12.3534 9.6028 12.5 9.11945 12.5 8.625C12.5 7.96196 12.2366 7.32607 11.7678 6.85723C11.2989 6.38839 10.663 6.125 10 6.125ZM10 9.875C9.75277 9.875 9.5111 9.80169 9.30554 9.66434C9.09998 9.52699 8.93976 9.33176 8.84515 9.10335C8.75054 8.87495 8.72579 8.62361 8.77402 8.38114C8.82225 8.13866 8.9413 7.91593 9.11612 7.74112C9.29093 7.5663 9.51366 7.44725 9.75614 7.39902C9.99861 7.35079 10.2499 7.37554 10.4784 7.47015C10.7068 7.56476 10.902 7.72498 11.0393 7.93054C11.1767 8.1361 11.25 8.37777 11.25 8.625C11.25 8.95652 11.1183 9.27446 10.8839 9.50888C10.6495 9.7433 10.3315 9.875 10 9.875Z" fill="#0D2548"/>
</svg>
