<svg width="251" height="251" viewBox="0 0 251 251" fill="none" xmlns="http://www.w3.org/2000/svg">
<g clip-path="url(#clip0_1231_1160)">
<path d="M222.827 68.4007C210.127 44.2151 183.045 33.8628 158.865 40.4348C154.553 41.6069 149.916 40.1419 147.06 36.7028C130.83 17.1623 102.74 10.571 78.8692 22.7053C55.3902 34.6408 44.4691 60.2805 49.5356 84.0184C51.5751 93.5761 52.6335 103.099 52.714 112.523C52.7006 112.724 52.7006 112.924 52.7178 113.12C52.7833 128.938 50.0119 140.075 49.8575 141.249L47.1929 161.357C44.5477 177.921 49.3784 194.643 60.4516 207.246C63.2194 210.345 66.5962 212.308 70.791 212.726C77.724 213.417 84.4866 209.411 87.2392 203.024L106.175 160.406C108.392 155.318 113.934 152.692 119.099 154.307C124.243 155.933 127.308 161.145 126.224 166.458C126.224 166.458 117.18 212.425 117.177 212.441C115.493 221 120.854 229.601 129.458 231.519C131.101 231.885 133.101 232.17 134.764 231.761C151.936 227.524 166.259 215.257 173.085 198.941C179.792 183.812 179.41 184.695 179.49 184.481C183.653 173.291 189.436 162.557 196.679 152.576C197.322 151.69 197.563 150.575 197.345 149.502L192.6 126.206C192.317 124.816 191.302 123.688 189.949 123.261L165.998 115.69L194.578 108.87L212.45 127.768C214.124 129.539 216.994 129.358 218.436 127.398C230.753 110.648 233.071 87.9107 222.827 68.4007ZM91.6324 26.018C106.013 38.1892 111.836 58.1133 106.125 76.1792C99.8529 96.0215 80.9947 109.403 60.4594 109.073C60.1768 100.234 59.0828 91.3228 57.1762 82.388C51.9433 57.8687 66.6626 32.7381 91.6324 26.018ZM214.75 118.829L198.704 101.863C197.744 100.848 196.316 100.423 194.959 100.747L150.467 111.364C148.76 111.771 147.533 113.269 147.47 115.023C147.407 116.778 148.523 118.359 150.197 118.888L185.403 130.017L189.35 149.391C182.183 159.512 176.421 170.355 172.209 181.644L165.926 195.812C165.915 195.838 165.903 195.864 165.893 195.89C160.069 209.839 147.883 220.356 133.247 224.087C130.929 224.676 127.899 222.725 126.513 221.022C124.936 219.085 124.299 216.466 124.827 214.021C124.836 213.981 124.894 213.682 133.883 167.993C135.764 158.778 130.42 149.692 121.453 146.857L121.398 146.84C112.45 144.042 102.827 148.532 99.0237 157.258C80.2362 199.543 80.0863 199.88 80.0703 199.918C77.6783 205.544 70.2331 206.54 66.3194 202.088C56.7776 191.228 52.6208 176.815 54.9141 162.542C55.066 161.579 54.3476 166.822 57.5824 142.419C59.3326 134.019 60.3022 125.493 60.4952 116.885C84.6606 117.196 106.265 101.652 113.573 78.5333C119.758 58.9681 114.411 38.4399 101.31 24.4551C116.07 23.6082 131.047 29.6515 141.049 41.6943C142.544 43.4938 144.342 44.9919 146.358 46.1329L133.053 57.9017C131.71 59.0895 131.348 61.0381 132.175 62.6288L141.107 79.8188L124.754 96.6891C122.718 98.7899 123.642 102.268 126.379 103.133C127.745 103.565 129.299 103.226 130.364 102.127L148.677 83.2354C149.847 82.0277 150.113 80.2072 149.338 78.7151L140.514 61.733L155.32 48.6354C157.197 48.6904 159.08 48.4711 160.913 47.9731C169.988 45.5067 179.538 45.7709 188.543 48.7434C216.774 58.0805 230.605 92.0772 214.75 118.829Z" fill="#312D2D"/>
</g>
<defs>
<clipPath id="clip0_1231_1160">
<rect width="200" height="200" fill="white" transform="translate(60.2812) rotate(17.5422)"/>
</clipPath>
</defs>
</svg>
