<svg width="27" height="28" viewBox="0 0 27 28" fill="none" xmlns="http://www.w3.org/2000/svg">
<g clip-path="url(#clip0_892_368)">
<path d="M25.3449 4.94274C24.6041 2.71286 23.0916 1.07218 21.1951 0.441419C17.5937 -0.756125 14.6321 0.782778 13.5001 1.52057C12.3681 0.782723 9.40636 -0.75618 5.80503 0.441419C3.9076 1.07246 2.39471 2.71412 1.65426 4.94536C0.680684 7.8794 1.1709 11.2636 2.96582 13.9982C4.16452 15.8245 4.9472 17.8855 5.22938 19.9585C5.24568 20.0781 5.26155 20.2002 5.27711 20.3252C5.54885 22.5113 5.94905 24.2659 6.46669 25.5403C7.08695 27.0675 7.88724 27.8921 8.84548 27.9916C9.86114 28.0968 10.7042 27.2209 11.352 25.3881C11.805 24.1064 12.1621 22.389 12.3576 20.5522C12.4668 19.5254 12.7223 18.694 13.0964 18.1481C13.2298 17.9534 13.4231 17.9324 13.5001 17.9324C13.577 17.9324 13.7703 17.9534 13.9037 18.1481C14.2778 18.694 14.5332 19.5254 14.6425 20.5522C14.8379 22.389 15.1952 24.1064 15.6481 25.3881C16.2611 27.1226 17.0491 28 17.9926 28C18.046 28 18.1001 27.9972 18.1546 27.9916C19.1128 27.8921 19.9131 27.0675 20.5334 25.5403C21.051 24.2659 21.4512 22.5113 21.723 20.3252C21.738 20.2048 21.7532 20.0871 21.7689 19.9717C22.0506 17.8951 22.8353 15.8275 24.0381 13.9923C25.8303 11.2579 26.3188 7.87486 25.3449 4.94274Z" fill="white"/>
</g>
<defs>
<clipPath id="clip0_892_368">
<rect width="27" height="28" fill="white"/>
</clipPath>
</defs>
</svg>
