<svg width="35" height="35" viewBox="0 0 35 35" fill="none" xmlns="http://www.w3.org/2000/svg">
<path d="M32.8343 8.77637C30.8368 8.77637 28.9939 8.11465 27.5139 6.99834C25.8165 5.71865 24.597 3.8415 24.1663 1.67793C24.0597 1.14336 24.0023 0.591699 23.9968 0.0263672H18.2908V15.6178L18.284 24.1579C18.284 26.4411 16.7972 28.377 14.7361 29.0579C14.138 29.2555 13.492 29.3491 12.8193 29.3122C11.9608 29.265 11.1562 29.006 10.4568 28.5876C8.96866 27.6976 7.95968 26.0829 7.93233 24.2358C7.88927 21.349 10.2231 18.9954 13.1078 18.9954C13.6773 18.9954 14.2241 19.0884 14.7361 19.2572V14.9957V13.4638C14.1961 13.3838 13.6465 13.3421 13.0907 13.3421C9.93321 13.3421 6.98009 14.6546 4.86915 17.0191C3.27364 18.8061 2.31661 21.0858 2.16896 23.4764C1.9755 26.6168 3.12462 29.602 5.35314 31.8046C5.68058 32.1279 6.02442 32.428 6.38399 32.7049C8.29464 34.1753 10.6305 34.9724 13.0907 34.9724C13.6465 34.9724 14.1961 34.9313 14.7361 34.8514C17.0344 34.5109 19.1549 33.4589 20.8283 31.8046C22.8846 29.7723 24.0207 27.0741 24.033 24.2023L24.0036 11.4492C24.9846 12.206 26.0571 12.8321 27.2083 13.3182C28.9986 14.0735 30.897 14.4563 32.8507 14.4557V10.3124V8.775C32.8521 8.77637 32.8357 8.77637 32.8343 8.77637Z" fill="white"/>
</svg>
