<svg width="50" height="50" viewBox="0 0 50 50" fill="none" xmlns="http://www.w3.org/2000/svg">
<g clip-path="url(#clip0_471_1167)">
<path d="M48.9698 12.9974C48.3934 10.8555 46.7047 9.16709 44.5631 8.59031C40.6504 7.51953 24.9995 7.51953 24.9995 7.51953C24.9995 7.51953 9.34902 7.51953 5.4363 8.5495C3.33594 9.12589 1.60598 10.8559 1.02958 12.9974C0 16.9098 0 25.0236 0 25.0236C0 25.0236 0 33.1782 1.02958 37.0497C1.60636 39.1913 3.29474 40.8801 5.43668 41.4568C9.39022 42.5276 24.9999 42.5276 24.9999 42.5276C24.9999 42.5276 40.6504 42.5276 44.5631 41.4977C46.7051 40.9213 48.3934 39.2325 48.9702 37.0909C49.9998 33.1782 49.9998 25.0648 49.9998 25.0648C49.9998 25.0648 50.041 16.9098 48.9698 12.9974Z" fill="#FF0000"/>
<path d="M20.0164 32.5195L33.0309 25.0237L20.0164 17.5278V32.5195Z" fill="white"/>
</g>
<defs>
<clipPath id="clip0_471_1167">
<rect width="50" height="50" fill="white"/>
</clipPath>
</defs>
</svg>
