<svg width="35" height="35" viewBox="0 0 35 35" fill="none" xmlns="http://www.w3.org/2000/svg">
<path d="M33.213 9.29898C32.8349 7.89327 31.7266 6.78517 30.3211 6.40665C27.7534 5.7041 17.4825 5.7041 17.4825 5.7041C17.4825 5.7041 7.21198 5.7041 4.6443 6.38002C3.26583 6.75813 2.13049 7.89347 1.75238 9.29898C1.07666 11.8665 1.07666 17.1911 1.07666 17.1911C1.07666 17.1911 1.07666 22.5425 1.75238 25.0832C2.13089 26.4887 3.23879 27.5968 4.6445 27.9753C7.23902 28.6781 17.4829 28.6781 17.4829 28.6781C17.4829 28.6781 27.7534 28.6781 30.3211 28.0021C31.7268 27.6238 32.8349 26.5157 33.2134 25.1102C33.889 22.5425 33.889 17.2181 33.889 17.2181C33.889 17.2181 33.916 11.8665 33.213 9.29898ZM14.2125 22.1102V12.272L22.7533 17.1911L14.2125 22.1102Z" fill="white"/>
</svg>
