<svg width="23" height="23" viewBox="0 0 23 23" fill="none" xmlns="http://www.w3.org/2000/svg">
<path d="M6.03135 0.5625C5.82415 0.5625 5.62543 0.64481 5.47892 0.791323C5.33241 0.937836 5.2501 1.13655 5.2501 1.34375C5.2501 1.55095 5.33241 1.74966 5.47892 1.89618C5.62543 2.04269 5.82415 2.125 6.03135 2.125H19.7704L0.791506 21.1039C0.48649 21.409 0.48649 21.9036 0.791506 22.2087C1.09659 22.5137 1.59119 22.5137 1.89627 22.2087L20.8752 3.22977V16.9688C20.8752 17.176 20.9575 17.3747 21.104 17.5213C21.2505 17.6678 21.4492 17.7501 21.6564 17.7501C21.8636 17.7501 22.0623 17.6678 22.2089 17.5213C22.3554 17.3747 22.4377 17.176 22.4377 16.9688V1.34383C22.4377 1.13663 22.3553 0.937932 22.2088 0.791424C22.0623 0.644915 21.8636 0.562599 21.6564 0.562578L6.03135 0.5625Z" fill="#3C4F6D"/>
</svg>
