<svg width="18" height="18" viewBox="0 0 18 18" fill="none" xmlns="http://www.w3.org/2000/svg">
<path d="M5.0624 1.125C4.91321 1.125 4.77014 1.18426 4.66465 1.28975C4.55916 1.39524 4.4999 1.53832 4.4999 1.6875C4.4999 1.83668 4.55916 1.97976 4.66465 2.08525C4.77014 2.19074 4.91321 2.25 5.0624 2.25H14.9545L1.28971 15.9148C1.0701 16.1345 1.0701 16.4906 1.28971 16.7102C1.50937 16.9299 1.86548 16.9299 2.08514 16.7102L15.75 3.04543V12.9376C15.75 13.0867 15.8092 13.2298 15.9147 13.3353C16.0202 13.4408 16.1633 13.5001 16.3125 13.5001C16.4616 13.5001 16.6047 13.4408 16.7102 13.3353C16.8157 13.2298 16.875 13.0867 16.875 12.9376V1.68756C16.8749 1.53838 16.8157 1.39531 16.7102 1.28983C16.6047 1.18434 16.4616 1.12507 16.3125 1.12506L5.0624 1.125Z" fill="white"/>
</svg>
