<svg width="50" height="50" viewBox="0 0 50 50" fill="none" xmlns="http://www.w3.org/2000/svg">
<path d="M41.8594 6.64062H36.3594V5.85938C36.3594 5.44497 36.1948 5.04755 35.9017 4.75452C35.6087 4.46149 35.2113 4.29688 34.7969 4.29688C34.3825 4.29688 33.985 4.46149 33.692 4.75452C33.399 5.04755 33.2344 5.44497 33.2344 5.85938V6.64062H16.7656V5.85938C16.7656 5.44497 16.601 5.04755 16.308 4.75452C16.015 4.46149 15.6175 4.29688 15.2031 4.29688C14.7887 4.29688 14.3913 4.46149 14.0983 4.75452C13.8052 5.04755 13.6406 5.44497 13.6406 5.85938V6.64062H8.14062C6.39727 6.64475 4.72649 7.33913 3.49375 8.57187C2.261 9.80462 1.56663 11.4754 1.5625 13.2188V40.625C1.56663 42.3684 2.261 44.0391 3.49375 45.2719C4.72649 46.5046 6.39727 47.199 8.14062 47.2031H41.8594C43.6027 47.199 45.2735 46.5046 46.5063 45.2719C47.739 44.0391 48.4334 42.3684 48.4375 40.625V13.2188C48.4334 11.4754 47.739 9.80462 46.5063 8.57187C45.2735 7.33913 43.6027 6.64475 41.8594 6.64062ZM8.14062 9.76562H13.6406V10.5469C13.6406 10.9613 13.8052 11.3587 14.0983 11.6517C14.3913 11.9448 14.7887 12.1094 15.2031 12.1094C15.6175 12.1094 16.015 11.9448 16.308 11.6517C16.601 11.3587 16.7656 10.9613 16.7656 10.5469V9.76562H33.2344V10.5469C33.2344 10.9613 33.399 11.3587 33.692 11.6517C33.985 11.9448 34.3825 12.1094 34.7969 12.1094C35.2113 12.1094 35.6087 11.9448 35.9017 11.6517C36.1948 11.3587 36.3594 10.9613 36.3594 10.5469V9.76562H41.8594C42.7752 9.76562 43.6535 10.1294 44.3011 10.777C44.9487 11.4246 45.3125 12.3029 45.3125 13.2188V16.9219H4.6875V13.2188C4.6875 12.3029 5.05131 11.4246 5.6989 10.777C6.34648 10.1294 7.2248 9.76562 8.14062 9.76562ZM41.8594 44.1406H8.14062C7.68185 44.1407 7.22765 44.0494 6.80457 43.8719C6.3815 43.6945 5.99801 43.4345 5.67653 43.1072C5.35505 42.7799 5.10201 42.3918 4.9322 41.9657C4.76238 41.5395 4.6792 41.0837 4.6875 40.625V20.0469H45.3125V40.625C45.3208 41.0837 45.2376 41.5395 45.0678 41.9657C44.898 42.3918 44.645 42.7799 44.3235 43.1072C44.002 43.4345 43.6185 43.6945 43.1954 43.8719C42.7723 44.0494 42.3182 44.1407 41.8594 44.1406Z" fill="white"/>
</svg>
