<svg width="50" height="50" viewBox="0 0 50 50" fill="none" xmlns="http://www.w3.org/2000/svg">
<path fill-rule="evenodd" clip-rule="evenodd" d="M26.2783 3.125C20.2424 3.125 15.3408 8.02656 15.3408 14.0625C15.3408 20.0984 20.2424 25 26.2783 25C32.3158 25 37.2158 20.0984 37.2158 14.0625C37.2158 8.02656 32.3158 3.125 26.2783 3.125ZM26.2783 6.25C30.5908 6.25 34.0908 9.75 34.0908 14.0625C34.0908 18.375 30.5908 21.875 26.2783 21.875C21.9674 21.875 18.4658 18.375 18.4658 14.0625C18.4658 9.75 21.9674 6.25 26.2783 6.25Z" fill="white"/>
<path fill-rule="evenodd" clip-rule="evenodd" d="M7.52832 43.75H25.0002C25.8627 43.75 26.5627 44.45 26.5627 45.3125C26.5627 46.175 25.8627 46.875 25.0002 46.875H5.96582C5.10332 46.875 4.40332 46.175 4.40332 45.3125C4.40332 45.3125 4.40332 44.0234 4.40332 42.1875C4.40332 34.4203 10.7002 28.125 18.4658 28.125H25.0002C25.8627 28.125 26.5627 28.825 26.5627 29.6875C26.5627 30.55 25.8627 31.25 25.0002 31.25H18.4658C12.4252 31.25 7.52832 36.1469 7.52832 42.1875V43.75Z" fill="white"/>
<path fill-rule="evenodd" clip-rule="evenodd" d="M39.1391 44.7064L35.4 47.2392C34.9203 47.5626 34.3016 47.597 33.7922 47.3251C33.2813 47.0548 32.9609 46.5236 32.9609 45.9454V35.422C32.9609 34.7736 33.3625 34.1907 33.9688 33.9611C34.5766 33.7314 35.2625 33.8986 35.6922 34.3845C36.5375 35.3361 37.7703 35.9376 39.1406 35.9376C40.5125 35.9376 41.7453 35.3361 42.5891 34.3845C43.0203 33.8986 43.7063 33.7314 44.3125 33.9611C44.9203 34.1907 45.3203 34.7736 45.3203 35.422V45.9454C45.3203 46.5236 45.0016 47.0548 44.4906 47.3251C43.9797 47.597 43.3609 47.5626 42.8828 47.2392L39.1391 44.7064ZM36.0859 38.4345V43.0001L38.2641 41.5267C38.7922 41.1689 39.4859 41.1673 40.0156 41.5251L42.1953 43.0017V38.4345C41.2594 38.8392 40.225 39.0626 39.1406 39.0626C38.0563 39.0626 37.0234 38.8392 36.0859 38.4345Z" fill="white"/>
<path fill-rule="evenodd" clip-rule="evenodd" d="M39.1405 23.5952C34.8733 23.5952 31.4077 27.0608 31.4077 31.328C31.4077 35.5968 34.8733 39.0624 39.1405 39.0624C43.4093 39.0624 46.8749 35.5968 46.8749 31.328C46.8749 27.0608 43.4093 23.5952 39.1405 23.5952ZM39.1405 26.7202C41.6843 26.7202 43.7499 28.7843 43.7499 31.328C43.7499 33.8718 41.6843 35.9374 39.1405 35.9374C36.5968 35.9374 34.5327 33.8718 34.5327 31.328C34.5327 28.7843 36.5968 26.7202 39.1405 26.7202Z" fill="white"/>
</svg>
