<svg width="60" height="60" viewBox="0 0 60 60" fill="none" xmlns="http://www.w3.org/2000/svg">
<path d="M30 30.9375H32.8125V33.75C32.8125 33.9986 32.9113 34.2371 33.0871 34.4129C33.2629 34.5887 33.5014 34.6875 33.75 34.6875H37.5C37.7486 34.6875 37.9871 34.5887 38.1629 34.4129C38.3387 34.2371 38.4375 33.9986 38.4375 33.75V30.9375H41.25C41.4986 30.9375 41.7371 30.8387 41.9129 30.6629C42.0887 30.4871 42.1875 30.2486 42.1875 30V26.25C42.1875 26.0014 42.0887 25.7629 41.9129 25.5871C41.7371 25.4113 41.4986 25.3125 41.25 25.3125H38.4375V22.5C38.4375 22.2514 38.3387 22.0129 38.1629 21.8371C37.9871 21.6613 37.7486 21.5625 37.5 21.5625H33.75C33.5014 21.5625 33.2629 21.6613 33.0871 21.8371C32.9113 22.0129 32.8125 22.2514 32.8125 22.5V25.3125H30C29.7514 25.3125 29.5129 25.4113 29.3371 25.5871C29.1613 25.7629 29.0625 26.0014 29.0625 26.25V30C29.0625 30.2486 29.1613 30.4871 29.3371 30.6629C29.5129 30.8387 29.7514 30.9375 30 30.9375ZM30.9375 27.1875H33.75C33.9986 27.1875 34.2371 27.0887 34.4129 26.9129C34.5887 26.7371 34.6875 26.4986 34.6875 26.25V23.4375H36.5625V26.25C36.5625 26.4986 36.6613 26.7371 36.8371 26.9129C37.0129 27.0887 37.2514 27.1875 37.5 27.1875H40.3125V29.0625H37.5C37.2514 29.0625 37.0129 29.1613 36.8371 29.3371C36.6613 29.5129 36.5625 29.7514 36.5625 30V32.8125H34.6875V30C34.6875 29.7514 34.5887 29.5129 34.4129 29.3371C34.2371 29.1613 33.9986 29.0625 33.75 29.0625H30.9375V27.1875Z" fill="#0D2548"/>
<path d="M4.17178 33.7499C4.78896 33.7509 5.39248 33.5683 5.90552 33.2252C6.41856 32.8821 6.8179 32.3941 7.05271 31.8234L9.3749 26.2499V36.4846L7.73334 55.4062C7.71946 55.5172 7.71351 55.629 7.71553 55.7409C7.71734 56.5829 8.03855 57.3929 8.6143 58.0074C9.19006 58.6218 9.97749 58.995 10.8176 59.0515C11.6578 59.108 12.4881 58.8437 13.141 58.3119C13.7938 57.7801 14.2206 57.0204 14.3352 56.1862L16.7558 38.4374H16.994L19.4137 56.1796C19.5174 56.9811 19.9141 57.7158 20.5274 58.2421C21.0269 58.6779 21.6453 58.9543 22.3031 59.0357C22.961 59.1172 23.6281 59.0001 24.2188 58.6994C24.8096 58.3987 25.2968 57.9282 25.618 57.3483C25.9392 56.7685 26.0796 56.1058 26.0212 55.4455L24.6449 39.6562C26.8104 41.7312 29.5198 43.1497 32.4589 43.7471C35.398 44.3445 38.4462 44.0962 41.2499 43.0312L44.2443 46.0312C44.4201 46.2069 44.6585 46.3057 44.9071 46.3057C45.1557 46.3057 45.3941 46.2069 45.5699 46.0312L46.5646 45.0365L52.8187 51.2812L54.1443 49.9555L47.8883 43.6996L51.2033 40.3846L57.4593 46.6405L58.7812 45.3187L52.5252 39.0627L53.5199 38.068C53.6957 37.8922 53.7944 37.6538 53.7944 37.4052C53.7944 37.1566 53.6957 36.9182 53.5199 36.7424L50.5312 33.7499C51.7466 30.5461 51.8958 27.0355 50.9566 23.74C50.0173 20.4446 48.0398 17.5402 45.3179 15.4586C42.5959 13.3769 39.275 12.2291 35.8485 12.1859C32.4221 12.1426 29.0732 13.2061 26.2996 15.2184C25.6877 14.5584 24.9461 14.0318 24.1213 13.6716C23.2965 13.3113 22.4062 13.1252 21.5062 13.1249H20.2377C21.4713 12.3888 22.4293 11.2682 22.9647 9.93518C23.5 8.60213 23.5832 7.13024 23.2014 5.74537C22.8196 4.3605 21.9939 3.13916 20.8511 2.26876C19.7083 1.39837 18.3114 0.927002 16.8749 0.927002C15.4384 0.927002 14.0415 1.39837 12.8987 2.26876C11.7559 3.13916 10.9302 4.3605 10.5484 5.74537C10.1666 7.13024 10.2498 8.60213 10.7852 9.93518C11.3205 11.2682 12.2785 12.3888 13.5121 13.1249H12.2437C10.9308 13.1197 9.64698 13.5105 8.55982 14.2465C7.47266 14.9824 6.63277 16.0291 6.1499 17.2499L1.26084 29.4805C1.11831 29.8465 1.04365 30.2353 1.04053 30.628C1.04276 31.4569 1.37368 32.2511 1.96068 32.8364C2.54769 33.4216 3.34286 33.7502 4.17178 33.7499ZM51.5352 37.4062L44.9062 44.0352L43.0865 42.2146C45.9063 40.7135 48.2144 38.4054 49.7155 35.5855L51.5352 37.4062ZM35.6249 14.0624C38.8783 14.0622 42.0312 15.19 44.5463 17.2538C47.0615 19.3175 48.7832 22.1895 49.4181 25.3804C50.0531 28.5713 49.562 31.8837 48.0285 34.753C46.4951 37.6224 44.0141 39.8714 41.0084 41.1166C38.0027 42.3619 34.6582 42.5264 31.5448 41.5822C28.4314 40.6379 25.7417 38.6434 23.934 35.9384C22.1263 33.2333 21.3125 29.9852 21.6312 26.7474C21.9499 23.5096 23.3814 20.4825 25.6818 18.1818C26.9844 16.8718 28.5339 15.8331 30.2407 15.126C31.9474 14.4189 33.7775 14.0574 35.6249 14.0624ZM12.1874 7.49992C12.1874 6.57282 12.4623 5.66654 12.9774 4.89568C13.4925 4.12483 14.2245 3.52402 15.0811 3.16923C15.9376 2.81445 16.8801 2.72162 17.7894 2.90249C18.6987 3.08335 19.5339 3.52979 20.1895 4.18535C20.845 4.84091 21.2915 5.67614 21.4723 6.58543C21.6532 7.49472 21.5604 8.43722 21.2056 9.29375C20.8508 10.1503 20.25 10.8824 19.4791 11.3974C18.7083 11.9125 17.802 12.1874 16.8749 12.1874C15.6322 12.1859 14.4407 11.6916 13.562 10.8128C12.6832 9.93408 12.1889 8.74266 12.1874 7.49992ZM3.0074 30.1602L7.89271 17.9446C8.23763 17.0731 8.83736 16.3259 9.61357 15.8006C10.3898 15.2752 11.3064 14.9962 12.2437 14.9999H21.5062C22.1286 14.9997 22.7448 15.124 23.3184 15.3655C23.8921 15.607 24.4116 15.9608 24.8465 16.4062C24.6833 16.5562 24.5127 16.694 24.3552 16.8505C21.7098 19.493 20.0792 22.9825 19.7494 26.7071C19.4196 30.4316 20.4116 34.1534 22.5515 37.2196L24.1537 55.6049C24.1799 55.8935 24.119 56.1833 23.9788 56.4369C23.8386 56.6905 23.6255 56.8962 23.3672 57.0274C23.1089 57.1586 22.8171 57.2094 22.5296 57.173C22.2421 57.1367 21.9722 57.015 21.7546 56.8237C21.4896 56.5964 21.318 56.2792 21.2727 55.933L18.7415 37.3705C18.7102 37.1464 18.599 36.9411 18.4282 36.7926C18.2574 36.644 18.0387 36.5623 17.8124 36.5624H15.9374C15.7107 36.5624 15.4916 36.6445 15.3208 36.7936C15.1499 36.9427 15.039 37.1487 15.0083 37.3734L12.4771 55.9359C12.4262 56.2988 12.2398 56.629 11.9554 56.8601C11.671 57.0912 11.3097 57.2061 10.944 57.1816C10.5783 57.1572 10.2355 56.9952 9.98441 56.7282C9.73332 56.4613 9.5926 56.1092 9.59053 55.7427C9.58931 55.6977 9.59119 55.6525 9.59615 55.6077L11.2499 36.5624V21.5624C11.2499 21.3457 11.1749 21.1356 11.0375 20.968C10.9002 20.8004 10.709 20.6855 10.4964 20.643C10.2839 20.6004 10.0632 20.6328 9.87193 20.7346C9.68061 20.8365 9.53049 21.0014 9.44709 21.2015L5.32209 31.1043C5.21164 31.3717 5.01187 31.5926 4.75682 31.7293C4.50177 31.8659 4.20722 31.9099 3.92337 31.8538C3.63951 31.7976 3.38392 31.6447 3.20015 31.4212C3.01637 31.1977 2.91578 30.9174 2.91553 30.628C2.91779 30.4678 2.94892 30.3094 3.0074 30.1602Z" fill="#0D2548"/>
<path d="M50.625 0.9375H59.0625V2.8125H50.625V0.9375Z" fill="#0D2548"/>
<path d="M50.625 4.6875H59.0625V6.5625H50.625V4.6875Z" fill="#0D2548"/>
<path d="M50.625 8.4375H59.0625V10.3125H50.625V8.4375Z" fill="#0D2548"/>
<path d="M46.875 0.9375H48.75V2.8125H46.875V0.9375Z" fill="#0D2548"/>
<path d="M46.875 4.6875H48.75V6.5625H46.875V4.6875Z" fill="#0D2548"/>
<path d="M46.875 8.4375H48.75V10.3125H46.875V8.4375Z" fill="#0D2548"/>
<path d="M27.0076 36.7425C28.712 38.4471 30.8836 39.6079 33.2478 40.0783C35.612 40.5486 38.0625 40.3073 40.2895 39.3849C42.5166 38.4625 44.4201 36.9004 45.7593 34.8961C47.0985 32.8919 47.8133 30.5355 47.8133 28.125C47.8133 25.7145 47.0985 23.3581 45.7593 21.3539C44.4201 19.3496 42.5166 17.7875 40.2895 16.8651C38.0625 15.9427 35.612 15.7014 33.2478 16.1718C30.8836 16.6421 28.712 17.803 27.0076 19.5075C25.8711 20.6364 24.9691 21.979 24.3535 23.458C23.738 24.937 23.4211 26.5231 23.4211 28.125C23.4211 29.7269 23.738 31.3131 24.3535 32.792C24.9691 34.271 25.8711 35.6136 27.0076 36.7425ZM28.3332 20.8331C29.7754 19.3909 31.6129 18.4086 33.6134 18.0107C35.6138 17.6127 37.6874 17.8169 39.5717 18.5975C41.4561 19.378 43.0668 20.6997 44.1999 22.3956C45.3331 24.0915 45.9379 26.0854 45.9379 28.125C45.9379 30.1646 45.3331 32.1585 44.1999 33.8544C43.0668 35.5503 41.4561 36.872 39.5717 37.6526C37.6874 38.4331 35.6138 38.6373 33.6134 38.2393C31.6129 37.8414 29.7754 36.8592 28.3332 35.4169C27.372 34.4614 26.6091 33.3252 26.0886 32.0738C25.568 30.8224 25.3 29.4804 25.3 28.125C25.3 26.7696 25.568 25.4276 26.0886 24.1762C26.6091 22.9248 27.372 21.7887 28.3332 20.8331Z" fill="#0D2548"/>
</svg>
