<svg width="60" height="60" viewBox="0 0 60 60" fill="none" xmlns="http://www.w3.org/2000/svg">
<path d="M3.54547 40.0909C2.8182 40.0909 2.00002 39.7272 1.45456 39.1818C1.00002 38.6363 0.72729 37.909 0.8182 37.1818C0.909109 36.3636 1.27274 35.7272 1.90911 35.2727L17.3637 23.1818C18.7273 22 20.9091 22 22.3637 23.1818L29.6364 28.909C30 29.1818 30.0909 29.8181 29.8182 30.1818C29.5455 30.5454 28.9091 30.6363 28.5455 30.3636L21.2727 24.6363C20.4546 24 19.3637 24 18.6364 24.6363L3.18184 36.7272C3.00002 36.909 2.90911 37.0909 2.8182 37.3636C2.8182 37.6363 2.90911 37.8181 3.00002 38C3.27274 38.3636 3.8182 38.4545 4.18184 38.1818L18.1818 27.2727C19.0909 26.4545 20.6364 26.4545 21.6364 27.2727L29.7273 33.5454C30.0909 33.8181 30.1818 34.4545 29.9091 34.8181C29.6364 35.1818 29 35.2727 28.6364 35L20.5455 28.7272C20.1818 28.4545 19.7273 28.4545 19.4546 28.7272L5.45456 39.6363C4.72729 39.909 4.09093 40.0909 3.54547 40.0909Z" fill="#0D2548"/>
<path d="M34.7273 58.909H5.00003C4.45458 58.909 4.09094 58.5453 4.09094 57.9999V38.5453C4.09094 37.9999 4.45458 37.6362 5.00003 37.6362C5.54549 37.6362 5.90912 37.9999 5.90912 38.5453V57.0908H34.7273C35.2728 57.0908 35.6364 57.4544 35.6364 57.9999C35.6364 58.5453 35.2728 58.909 34.7273 58.909Z" fill="#0D2548"/>
<path d="M19.8182 58.9091H10C9.45458 58.9091 9.09094 58.5455 9.09094 58V44.4546C9.09094 43.2728 9.90912 42.4546 11.0909 42.4546H18.7273C19.8182 42.4546 20.7273 43.3637 20.7273 44.4546V58C20.7273 58.5455 20.3637 58.9091 19.8182 58.9091ZM10.9091 57.091H18.9091V44.4546C18.9091 44.3637 18.8182 44.2728 18.7273 44.2728H11.0909C11 44.2728 10.9091 44.3637 10.9091 44.4546V57.091Z" fill="#0D2548"/>
<path d="M16.9091 51.7274H15.5454C15 51.7274 14.6364 51.3637 14.6364 50.8183C14.6364 50.2728 15 49.9092 15.5454 49.9092H16.9091C17.4545 49.9092 17.8182 50.2728 17.8182 50.8183C17.8182 51.3637 17.4545 51.7274 16.9091 51.7274Z" fill="#0D2548"/>
<path d="M16.9091 52.3637C16.3636 52.3637 16 52.0001 16 51.4546V50.091C16 49.5455 16.3636 49.1819 16.9091 49.1819C17.4545 49.1819 17.8182 49.5455 17.8182 50.091V51.4546C17.8182 52.0001 17.4545 52.3637 16.9091 52.3637Z" fill="#0D2548"/>
<path d="M11.091 30.1817C10.5455 30.1817 10.1819 29.8181 10.1819 29.2726V8.45443C10.1819 8.0908 10.4546 7.72716 10.8182 7.63625L30.0001 1.18171C30.1819 1.0908 30.3637 1.0908 30.5455 1.18171L49.8182 7.72716C50.1819 7.81807 50.4546 8.18171 50.4546 8.54534V23.4544C50.4546 23.9999 50.091 24.3635 49.5455 24.3635C49.0001 24.3635 48.6364 23.9999 48.6364 23.4544V9.18171L30.2728 2.99989L12.0001 9.0908V29.2726C12.0001 29.8181 11.6364 30.1817 11.091 30.1817Z" fill="#0D2548"/>
<path d="M23.1818 40.9998H16.1818C15.6363 40.9998 15.2727 40.6362 15.2727 40.0907V36.818C15.2727 34.4543 17.2727 32.4543 19.6363 32.4543C22 32.4543 24 34.4543 24 36.818V39.7271C24.0909 39.818 24.0909 39.9998 24.0909 40.0907C24.0909 40.6362 23.7273 40.9998 23.1818 40.9998ZM17.0909 39.1816H22.1818V36.818C22.1818 35.4543 21 34.2725 19.6363 34.2725C18.2727 34.2725 17.0909 35.4543 17.0909 36.818V39.1816Z" fill="#0D2548"/>
<path d="M23.0909 20.6363H15.9091C15.3636 20.6363 15 20.2726 15 19.7272V14.8181C15 12.3635 17 10.3635 19.4545 10.3635C21.9091 10.3635 23.9091 12.3635 23.9091 14.8181V19.3635C24 19.4544 24 19.6363 24 19.7272C24 20.2726 23.6364 20.6363 23.0909 20.6363ZM16.8182 18.8181H22.0909V14.8181C22.0909 13.3635 20.9091 12.1817 19.4545 12.1817C18 12.1817 16.8182 13.3635 16.8182 14.8181V18.8181Z" fill="#0D2548"/>
<path d="M33.9091 20.6363H26.7273C26.1819 20.6363 25.8182 20.2726 25.8182 19.7272V14.8181C25.8182 12.3635 27.8182 10.3635 30.2728 10.3635C32.7273 10.3635 34.7273 12.3635 34.7273 14.8181L34.8182 19.7272C34.8182 19.9999 34.7273 20.1817 34.5455 20.3635C34.3637 20.5453 34.1819 20.6363 33.9091 20.6363ZM27.6364 18.8181H33.0001L32.9091 14.8181C32.9091 13.3635 31.7273 12.1817 30.2728 12.1817C28.8182 12.1817 27.6364 13.3635 27.6364 14.8181V18.8181Z" fill="#0D2548"/>
<path d="M44.7273 20.6363H37.5454C37 20.6363 36.6364 20.2726 36.6364 19.7272V14.8181C36.6364 12.3635 38.6364 10.3635 41.0909 10.3635C43.5454 10.3635 45.5454 12.3635 45.5454 14.8181L45.6364 19.7272C45.6364 19.9999 45.5454 20.1817 45.3636 20.3635C45.1818 20.5453 45 20.6363 44.7273 20.6363ZM38.4545 18.8181H43.8182L43.7273 14.8181C43.7273 13.3635 42.5454 12.1817 41.0909 12.1817C39.6364 12.1817 38.4545 13.3635 38.4545 14.8181V18.8181Z" fill="#0D2548"/>
<path d="M52.1819 58.9089H31.5455C29.6364 58.9089 28.0909 57.3634 28.0909 55.4543V26.1816C28.0909 24.2725 29.6364 22.7271 31.5455 22.7271H52.2728C54.1819 22.7271 55.7273 24.2725 55.7273 26.1816V45.818C55.7273 46.3634 55.3637 46.7271 54.8182 46.7271C54.2728 46.7271 53.9091 46.3634 53.9091 45.818V26.1816C53.9091 25.2725 53.1819 24.5452 52.2728 24.5452H31.5455C30.6364 24.5452 29.9091 25.2725 29.9091 26.1816V55.4543C29.9091 56.3634 30.6364 57.0907 31.5455 57.0907H52.1819C53.0909 57.0907 53.8182 56.3634 53.8182 55.4543V52.3634C53.8182 51.818 54.1819 51.4543 54.7273 51.4543C55.2728 51.4543 55.6364 51.818 55.6364 52.3634V55.4543C55.6364 57.3634 54.0909 58.9089 52.1819 58.9089Z" fill="#0D2548"/>
<path d="M33.8182 43.3635C33.5455 43.3635 33.3637 43.2726 33.1819 43.0907L31.7273 41.6362C31.3637 41.2725 31.3637 40.7271 31.7273 40.3635C32.091 39.9998 32.6364 39.9998 33 40.3635L33.8182 41.1816L36.5455 38.4544C36.9091 38.0907 37.4546 38.0907 37.8182 38.4544C38.1819 38.818 38.1819 39.3635 37.8182 39.7271L34.4546 43.0907C34.2728 43.2726 34.091 43.3635 33.8182 43.3635Z" fill="#0D2548"/>
<path d="M33.8182 33.9089C33.5455 33.9089 33.3637 33.818 33.1819 33.6361L31.7273 32.1816C31.3637 31.818 31.3637 31.2725 31.7273 30.9089C32.091 30.5452 32.6364 30.5452 33 30.9089L33.8182 31.7271L36.5455 28.9998C36.9091 28.6361 37.4546 28.6361 37.8182 28.9998C38.1819 29.3634 38.1819 29.9089 37.8182 30.2725L34.4546 33.6361C34.2728 33.818 34.091 33.9089 33.8182 33.9089Z" fill="#0D2548"/>
<path d="M33.8182 52.9089C33.5455 52.9089 33.3637 52.818 33.1819 52.6361L31.7273 51.1816C31.3637 50.818 31.3637 50.2725 31.7273 49.9089C32.091 49.5452 32.6364 49.5452 33 49.9089L33.8182 50.7271L36.5455 47.9998C36.9091 47.6361 37.4546 47.6361 37.8182 47.9998C38.1819 48.3634 38.1819 48.9089 37.8182 49.2725L34.4546 52.6361C34.2728 52.818 34.091 52.9089 33.8182 52.9089Z" fill="#0D2548"/>
<path d="M50.5455 32.1817H40.4546C39.9092 32.1817 39.5455 31.8181 39.5455 31.2726C39.5455 30.7272 39.9092 30.3635 40.4546 30.3635H50.5455C51.091 30.3635 51.4546 30.7272 51.4546 31.2726C51.4546 31.8181 51.091 32.1817 50.5455 32.1817Z" fill="#0D2548"/>
<path d="M45.8183 51.1817H40.4546C39.9092 51.1817 39.5455 50.8181 39.5455 50.2726C39.5455 49.7272 39.9092 49.3635 40.4546 49.3635H45.8183C46.3637 49.3635 46.7274 49.7272 46.7274 50.2726C46.7274 50.8181 46.3637 51.1817 45.8183 51.1817Z" fill="#0D2548"/>
<path d="M55.8182 53.5454C54.9091 53.5454 54 53.1817 53.3636 52.4545L48.1818 46.4545C47.8182 46.0908 47.9091 45.5454 48.2727 45.1817C48.6364 44.8181 49.1818 44.909 49.5454 45.2726L54.7273 51.2726C55 51.5454 55.3636 51.7272 55.8182 51.7272C56.0909 51.7272 56.4545 51.6363 56.7273 51.2726C57 50.9999 57.1818 50.6363 57.1818 50.1817C57.1818 49.8181 57 49.4545 56.7273 49.1817L50.7273 43.9999C50.3636 43.6363 50.2727 43.0908 50.6364 42.7272C51 42.3635 51.5454 42.2726 51.9091 42.6363L57.9091 47.8181C58.5454 48.4545 59 49.2726 59 50.1817C59 51.0908 58.6364 51.909 58.0909 52.5454C57.5454 53.1817 56.7273 53.5454 55.8182 53.5454Z" fill="#0D2548"/>
<path d="M46.1818 47.3635C44.4546 47.3635 42.7273 46.7271 41.4546 45.3635C38.8182 42.7271 38.8182 38.5453 41.4546 35.9089C44.0909 33.2725 48.2728 33.2725 50.9091 35.9089C53.5455 38.5453 53.5455 42.7271 50.9091 45.3635C49.6364 46.6362 47.9091 47.3635 46.1818 47.3635ZM46.1818 35.7271C44.9091 35.7271 43.7273 36.1816 42.7273 37.1816C40.8182 39.0907 40.8182 42.1816 42.7273 44.0907C44.6364 45.9998 47.7273 45.9998 49.6364 44.0907C51.5455 42.1816 51.5455 39.0907 49.6364 37.1816C48.6364 36.1816 47.4546 35.7271 46.1818 35.7271Z" fill="#0D2548"/>
</svg>
