<svg width="35" height="35" viewBox="0 0 35 35" fill="none" xmlns="http://www.w3.org/2000/svg">
<path d="M17.5 12.1514C14.5484 12.1514 12.1509 14.5489 12.1509 17.5005C12.1509 20.4522 14.5484 22.8555 17.5 22.8555C20.4517 22.8555 22.855 20.4522 22.855 17.5005C22.855 14.5489 20.4517 12.1514 17.5 12.1514Z" fill="white"/>
<path d="M25.5732 2.91699H9.4265C5.839 2.91699 2.9165 5.83949 2.9165 9.42699V25.5737C2.9165 29.167 5.839 32.0837 9.4265 32.0837H25.5732C29.1665 32.0837 32.0832 29.167 32.0832 25.5737V9.42699C32.0832 5.83949 29.1665 2.91699 25.5732 2.91699ZM17.4998 26.9503C12.2907 26.9503 8.04984 22.7095 8.04984 17.5003C8.04984 12.2912 12.2907 8.05616 17.4998 8.05616C22.709 8.05616 26.9498 12.2912 26.9498 17.5003C26.9498 22.7095 22.709 26.9503 17.4998 26.9503ZM27.1482 9.77116C26.0457 9.77116 25.1473 8.87866 25.1473 7.77616C25.1473 6.67366 26.0457 5.77533 27.1482 5.77533C28.2507 5.77533 29.149 6.67366 29.149 7.77616C29.149 8.87866 28.2507 9.77116 27.1482 9.77116Z" fill="white"/>
</svg>
