<svg width="50" height="50" viewBox="0 0 50 50" fill="none" xmlns="http://www.w3.org/2000/svg">
<path d="M31.2969 22.0059C31.2969 21.2293 30.6672 20.5996 29.8906 20.5996H14.4219C13.6453 20.5996 13.0156 21.2293 13.0156 22.0059C13.0156 22.7824 13.6453 23.4121 14.4219 23.4121H29.8906C30.6672 23.4121 31.2969 22.7824 31.2969 22.0059Z" fill="white"/>
<path d="M14.4189 27.7012C13.6424 27.7012 13.0127 28.3309 13.0127 29.1074C13.0127 29.884 13.6424 30.5137 14.4189 30.5137H22.6205C23.3971 30.5137 24.0268 29.884 24.0268 29.1074C24.0268 28.3309 23.3971 27.7012 22.6205 27.7012H14.4189Z" fill="white"/>
<path d="M40.5625 22.0844C39.7859 22.0844 39.1562 22.7141 39.1562 23.4906V34.8641C39.1562 36.9922 37.425 38.7234 35.2969 38.7234H25.8906C25.5859 38.7234 25.2891 38.8219 25.0453 39.0063L16.9234 45.1141C16.7172 45.2687 16.5234 45.2047 16.4266 45.1516C16.3281 45.1016 16.1656 44.9781 16.1719 44.7266L16.3281 40.1797C16.3406 39.7984 16.1984 39.4281 15.9344 39.1547C15.6703 38.8797 15.3047 38.725 14.9234 38.725H8.39062C6.2625 38.725 4.53125 36.9953 4.53125 34.8656V16.2719C4.53125 14.1359 6.2625 12.3984 8.39062 12.3984H25.7187C26.4953 12.3984 27.125 11.7687 27.125 10.9922C27.125 10.2156 26.4953 9.58594 25.7187 9.58594H8.39062C4.7125 9.58594 1.71875 12.5859 1.71875 16.2734V34.8656C1.71875 38.5438 4.7125 41.5391 8.39062 41.5391H13.4672L13.3609 44.6359C13.3234 45.9078 14 47.0641 15.1297 47.65C15.6125 47.9016 16.1328 48.025 16.6484 48.025C17.3406 48.025 18.0266 47.8016 18.6109 47.3656L26.3594 41.5391H35.2953C38.9734 41.5391 41.9672 38.5453 41.9672 34.8656V23.4922C41.9688 22.7141 41.3391 22.0844 40.5625 22.0844Z" fill="white"/>
<path d="M48.1639 8.68887C47.9093 7.90762 47.2827 7.32324 46.4874 7.12637L42.8936 6.23105L40.9311 3.09043C40.0608 1.69356 37.7889 1.69668 36.9202 3.09043L34.9577 6.23105L31.3639 7.12637C30.5686 7.32324 29.9405 7.90762 29.6874 8.68887C29.4343 9.47012 29.5968 10.3123 30.1249 10.942L32.5061 13.7764L32.2468 17.4701C32.1889 18.2889 32.5514 19.0654 33.2155 19.5482C33.628 19.8482 34.1124 20.0029 34.603 20.0029C34.9014 20.0029 35.203 19.9451 35.4921 19.8279L38.9264 18.4404L42.3593 19.8279C43.1202 20.1373 43.9702 20.0311 44.6358 19.5498C45.2999 19.067 45.6624 18.2904 45.6061 17.4701L45.3468 13.7764L47.728 10.9404C48.2546 10.3123 48.4186 9.47012 48.1639 8.68887ZM42.8264 12.4029C42.5921 12.6826 42.4749 13.042 42.5014 13.4076L42.7514 16.9545L39.4546 15.6217C39.2858 15.5529 39.1061 15.5186 38.928 15.5186C38.7499 15.5186 38.5702 15.5529 38.4014 15.6217L35.1061 16.9545L35.3546 13.4076C35.3796 13.0436 35.2624 12.6826 35.0296 12.4029L32.7436 9.68105L36.1936 8.82012C36.5468 8.73105 36.853 8.51074 37.0452 8.20137L38.9296 5.1873L40.8139 8.20137C41.0077 8.51074 41.3124 8.73262 41.6655 8.82012L45.1155 9.68105L42.8264 12.4029Z" fill="white"/>
</svg>
