<svg width="263" height="303" viewBox="0 0 263 303" fill="none" xmlns="http://www.w3.org/2000/svg">
<path d="M262.718 107.473C261.957 87.2002 252.808 69.7554 238.842 61.9462C221.174 52.0675 210.509 52.1653 201.099 52.2515C193.982 52.3166 188.36 52.3683 180.369 47.9002C172.378 43.4321 169.478 38.6158 165.807 32.5182C160.953 24.4566 155.451 15.3193 137.783 5.44055C123.817 -2.36863 104.164 -1.02766 86.495 8.94038C72.6211 16.7667 60.6908 29.2699 51.9934 45.0979C41.9608 63.3558 36.445 85.3327 35.5987 110.419C34.1644 152.942 20.6143 182.583 10.7203 204.226C5.37073 215.929 1.14501 225.172 0.302406 233.199C-0.697381 242.722 3.30443 249.861 12.5372 255.024C34.769 267.454 57.8133 238.671 76.3299 215.544C82.3273 208.053 87.9922 200.978 92.7313 196.444C98.2026 191.21 99.8979 191.786 99.9127 191.794C99.9274 191.802 101.305 192.945 99.7117 200.347C98.331 206.759 95.2696 215.29 92.0287 224.322C82.0218 252.207 69.5681 286.912 91.7999 299.342C101.033 304.505 109.21 304.176 116.8 298.337C123.197 293.416 128.859 284.976 136.027 274.29C149.285 254.527 167.442 227.462 202.917 203.973C223.845 190.115 239.68 173.908 249.981 155.8C258.911 140.102 263.315 123.391 262.718 107.473ZM198.066 196.647C161.125 221.107 142.402 249.017 128.731 269.395C114.039 291.296 108.335 298.521 96.0879 291.673C80.3519 282.875 91.4118 252.054 100.298 227.289C103.641 217.975 106.798 209.178 108.301 202.197C109.131 198.345 111.334 188.114 104.201 184.125C97.0674 180.137 89.5047 187.371 86.6576 190.095C81.4974 195.031 75.6559 202.328 69.471 210.053C53.0267 230.592 32.5613 256.153 16.8252 247.355C4.57849 240.507 7.74697 231.864 18.7111 207.879C28.9136 185.561 42.8866 154.995 44.3801 110.715C46.4883 48.2159 77.5537 24.0722 90.812 16.593C105.83 8.12075 122.186 6.78585 133.495 13.1095C149.127 21.8499 153.78 29.5774 158.28 37.0504C160.816 41.2624 163.42 45.5681 167.807 49.6275C157.842 47.365 152.31 44.5636 152.216 44.5149C150.068 43.3869 147.412 44.2137 146.284 46.362C145.174 48.4753 145.957 51.0798 148.028 52.2378C148.062 52.2567 148.097 52.2756 148.131 52.2938C148.954 52.7259 168.636 62.8377 201.75 61.0324C210.298 60.9582 219.262 61.0651 234.554 69.6152C245.864 75.9388 253.291 90.5714 253.938 107.803C254.509 123.014 250.207 162.123 198.066 196.647Z" fill="white" fill-opacity="0.5"/>
</svg>
