<svg width="50" height="50" viewBox="0 0 50 50" fill="none" xmlns="http://www.w3.org/2000/svg">
<g clip-path="url(#clip0_1436_2086)">
<path d="M14.9359 26.7075C16.3949 26.7075 17.8212 26.2749 19.0344 25.4643C20.2475 24.6537 21.1931 23.5015 21.7514 22.1535C22.3098 20.8055 22.4559 19.3223 22.1712 17.8912C21.8866 16.4602 21.184 15.1458 20.1523 14.114C19.1206 13.0823 17.8061 12.3797 16.3751 12.0951C14.9441 11.8104 13.4608 11.9565 12.1128 12.5149C10.7648 13.0732 9.61265 14.0188 8.80204 15.2319C7.99144 16.4451 7.55878 17.8714 7.55878 19.3304C7.56099 21.2863 8.33893 23.1614 9.72192 24.5444C11.1049 25.9274 12.98 26.7053 14.9359 26.7075ZM14.9359 15.0783C15.7769 15.0783 16.599 15.3277 17.2982 15.795C17.9975 16.2622 18.5425 16.9263 18.8643 17.7032C19.1861 18.4802 19.2703 19.3352 19.1063 20.16C18.9422 20.9848 18.5372 21.7425 17.9426 22.3371C17.3479 22.9318 16.5903 23.3368 15.7654 23.5008C14.9406 23.6649 14.0856 23.5807 13.3087 23.2589C12.5317 22.937 11.8676 22.392 11.4004 21.6928C10.9332 20.9935 10.6838 20.1714 10.6838 19.3304C10.6851 18.2031 11.1335 17.1223 11.9306 16.3252C12.7277 15.528 13.8085 15.0796 14.9359 15.0783ZM35.0641 18.2552C36.5232 18.2552 37.9495 17.8225 39.1626 17.0119C40.3758 16.2013 41.3213 15.0492 41.8797 13.7012C42.438 12.3532 42.5841 10.8699 42.2995 9.43888C42.0148 8.00786 41.3122 6.69339 40.2805 5.66168C39.2488 4.62998 37.9343 3.92738 36.5033 3.64273C35.0723 3.35808 33.589 3.50417 32.241 4.06253C30.893 4.62088 29.7409 5.56642 28.9303 6.77958C28.1197 7.99274 27.687 9.41903 27.687 10.8781C27.6892 12.8339 28.4672 14.709 29.8502 16.092C31.2332 17.475 33.1083 18.253 35.0641 18.2552ZM35.0641 6.62598C35.9051 6.62598 36.7272 6.87536 37.4265 7.34259C38.1257 7.80981 38.6707 8.4739 38.9925 9.25087C39.3144 10.0278 39.3986 10.8828 39.2345 11.7076C39.0704 12.5324 38.6655 13.2901 38.0708 13.8848C37.4761 14.4794 36.7185 14.8844 35.8937 15.0485C35.0688 15.2125 34.2139 15.1283 33.4369 14.8065C32.6599 14.4847 31.9959 13.9397 31.5286 13.2404C31.0614 12.5412 30.812 11.7191 30.812 10.8781C30.8133 9.75074 31.2617 8.66995 32.0588 7.8728C32.856 7.07565 33.9368 6.62726 35.0641 6.62598ZM38.4696 20.4679H31.6587C29.1033 20.4756 26.6224 21.3288 24.6028 22.8944C22.5833 24.46 21.1386 26.6499 20.4942 29.1227C19.7845 28.988 19.0637 28.9202 18.3413 28.9203H11.5304C8.47341 28.9237 5.54262 30.1396 3.381 32.3013C1.21938 34.4629 0.00346351 37.3937 0 40.4507L0 44.9362C0 45.3506 0.16462 45.748 0.457646 46.0411C0.750671 46.3341 1.1481 46.4987 1.5625 46.4987H28.3092C28.7236 46.4987 29.1211 46.3341 29.4141 46.0411C29.7071 45.748 29.8717 45.3506 29.8717 44.9362V40.4507C29.8719 39.6426 29.7871 38.8367 29.6188 38.0464H48.4375C48.8519 38.0464 49.2493 37.8817 49.5424 37.5887C49.8354 37.2957 50 36.8983 50 36.4839V31.9983C49.9965 28.9413 48.7806 26.0105 46.619 23.8489C44.4574 21.6873 41.5266 20.4714 38.4696 20.4679ZM26.7467 43.3737H3.125V40.4507C3.12751 38.2222 4.01389 36.0857 5.58966 34.5099C7.16544 32.9341 9.30192 32.0478 11.5304 32.0453H18.3413C20.5698 32.0478 22.7063 32.9341 24.2821 34.5099C25.8579 36.0857 26.7442 38.2222 26.7467 40.4507V43.3737ZM46.875 34.9214H28.4569C27.3203 32.8526 25.5801 31.1794 23.4683 30.1249C24.3341 26.3848 27.7369 23.5929 31.6587 23.5929H38.4696C40.6981 23.5954 42.8346 24.4818 44.4103 26.0576C45.9861 27.6333 46.8725 29.7698 46.875 31.9983V34.9214Z" fill="white"/>
</g>
<defs>
<clipPath id="clip0_1436_2086">
<rect width="50" height="50" fill="white"/>
</clipPath>
</defs>
</svg>
